# xmcd
#
# Track frame offsets:
#	150
#	16944
#	44243
#	69124
#	96923
#	112756
#	138012
#	157985
#	179078
#	200759
#	219168
#	245543
#	263787
#
# Disc length: 3723 seconds
#
# Revision: 1
# Processed by: cddbd v1.5.2PL0 Copyright (c) Steve Scherf et al.
# Submitted via: EasyCDDAExtractor 2010.4.0.0
#
DISCID=b10e890d
DTITLE=Petrovitch Band - Уездные хроники
DYEAR=2010
DGENRE=Blues
TTITLE0=Слепые на автостраде
TTITLE1=Загляни в эту ночь
TTITLE2=Возьми себя в руки
TTITLE3=Полный вперед
TTITLE4=Наш дом
TTITLE5=Заклинатель змей
TTITLE6=Акула
TTITLE7=Ты крутой
TTITLE8=Очки тапочки
TTITLE9=Не горюй
TTITLE10=Монета
TTITLE11=Когда на земле - весна
TTITLE12=Нам хватит
EXTD=
EXTT0=
EXTT1=
EXTT2=
EXTT3=
EXTT4=
EXTT5=
EXTT6=
EXTT7=
EXTT8=
EXTT9=
EXTT10=
EXTT11=
EXTT12=
PLAYORDER=
